<?xml version="1.0" encoding="utf-8"?>
<!-- Generator: Adobe Illustrator 19.0.0, SVG Export Plug-In . SVG Version: 6.00 Build 0)  -->
<svg version="1.1" id="Layer_1" xmlns="http://www.w3.org/2000/svg" xmlns:xlink="http://www.w3.org/1999/xlink" x="0px" y="0px"
	 viewBox="0 0 500 500" style="enable-background:new 0 0 500 500;" xml:space="preserve">
<style type="text/css">
	.st0{opacity:0.82;fill:#369182;}
	.st1{opacity:0.82;fill:#4BBDAC;}
	.st2{fill:#FFFFFF;}
</style>
<circle id="XMLID_12_" class="st0" cx="238.6" cy="247.3" r="141.5"/>
<circle id="XMLID_14_" class="st1" cx="259.4" cy="264" r="141.5"/>
<g>
	<g>
		<path id="XMLID_11_" class="st2" d="M269.4,223.4c5.4,1.4,10.7,3.2,16,5.6c6.4,2.9,11.6,6.6,15.8,11.1
			C295.1,230,282,225.4,269.4,223.4z"/>
		<path class="st2" d="M369.4,185.7c-3.3-15-23.9-0.4-28.9,3.9c-8.4,7.1-16.3,14.6-23.9,22.4c-1.2,1.2-15,16.4-18.8,17.6
			c0.1-0.2,0.1-0.4,0.1-0.6c0.8-14.2,9.1-26.2,15.7-38.4c5.5-10.2,10.4-20.2,12.6-31.6c1.3-6.4,2.8-16.5-2.6-21.6
			c-4.9-4.6-15.3-7.9-20.9-2.2c-11.5,11.6-18,27.6-22.1,43.2c-1.1,4.3-7.8,32.9-14.4,39.3c-1.1-0.2-2.2-0.3-3.3-0.5
			c-6-22.7,4-49,7.8-71.7c1.8-10.3,2.3-32.9-14.1-31.8c-16.1,1-17.3,23.8-19.5,35.8c-2.1,11.3-3.3,22.7-4.6,34.1
			c-0.8,6.5-1.7,12.9-2.9,19.2c-0.8,4.5-1.7,14.6-5.8,17.5c-5.4-12.1-3.5-26.2-2.9-39.1c0.5-11.1,1.5-23.4-0.4-34.3
			c-2-11.3-13.2-28.8-25.3-14.7c-11,12.9-9.1,30.1-6.6,45.6c3.7,23.1,4.3,46.5,7,69.7c-0.1,2.6-0.3,5.2-0.4,7.8
			c0.1-1.4-2.5,13.2-2.6,13.1c0,0-0.1,0-0.1-0.1l0,0.3c0,0.5-0.5,0.9-0.9,0.9c-0.3,0.2-0.6,0.2-0.8,0c-0.4-0.4-0.7-0.8-1-1.3
			c-2.3-1.1-4.5-2.5-6.6-4.3c-8.1-12.5-20.6-23.4-36.2-21.3c-16.3,2.2-17.6,17.1-8.5,27.8c7.9,9.3,18.6,14.6,24.2,26
			c5,10.2,7.4,21.3,13,31.4c4.4,7.9,10.6,14.8,18.1,19.9c3.1,2.1,6.3,3.5,9.6,4.5c3.6,0,7.4,1.1,8.4,4.6c0.4,1.5-0.6,3.3-1.6,4.3
			c-4.1,4.6-8.3,10.3-2.1,15.5c4.5,3.8,9.5,6.5,14.9,8.3c7.6,1.4,15.7,1.1,23.9,0.1c15.3-1.8,35.8-4.1,46.2-15.8
			c6.8-7.6,12.9-27.2,2.1-35.4c7.2-6.3,13-14.4,17-23.9c5.5-13.3,7.7-31.8,4.7-48.2c0.3-1.7,0.6-3.4,1.2-5.1
			c2.3-6.6,7.9-11.6,12.9-16.2c6.7-6.3,14.7-11.3,21.5-17.6C361.9,214.3,372.4,199.4,369.4,185.7z M284.4,174.7
			c2.6-10,7-18.8,12.9-27.2c6-8.5,20-17.3,25.3-2.3c2.5,7.1-1.6,18.7-4,25.4c-6.9,19.2-22.9,36.4-23.8,57.4
			c-8-5.3-17.2-8.5-26.7-10.1C275.8,209.4,283.2,179,284.4,174.7z M228.7,216.5c2.5-8.1,3.9-16.7,5.2-25c3-19.6,4.8-39.1,9.3-58.4
			c1.9-8,7.4-18.2,17.2-14.6c9.1,3.3,8.3,15.7,7.4,23.2c-1.2,10.2-3.4,20.3-5.1,30.4c-2.7,15.7-6.3,29.5-2.4,44.8
			c-11.5-0.9-23.3,0.4-34,3.3C227.5,219.3,228.2,218.2,228.7,216.5z M361.8,203.1c-8.6,19.9-39.2,31.7-46.7,52.4
			c-0.5-1.6-1-3.2-1.6-4.8c4.5,24,2.3,53.6-12.7,72c-3.3,4.1-7.7,8-12.4,11.6c0.5,2.4,0.4,4.7-0.3,6.9c0.1,0.3,0.1,0.6,0,1
			c-4,10.7-20.6,17.8-30.7,21c-8.1,2.5-16.1,3.7-24.6,3.8c-5.4,0.1-11,0.5-15.9-2c-0.4-0.2-0.5-0.5-0.4-0.8c0,0,0,0,0,0
			c0-2.6-0.2-5.3-1.2-7.6c-0.1-0.6-0.1-1.2-0.2-1.8c1.4,0.2,2.9,0.4,4.4,0.5c-1.6-0.7-3.2-1.5-4.9-2.3c-3.9-1.8-8-2.5-12-3.9
			c-7.6-2.7-13.8-7.2-18.6-13.8c-10.8-14.6-13.1-32.6-21.9-48.1c-2.5-3.3-5.6-6.1-9-8.8c-6.5-5.4-29.3-20.6-11.2-30.7
			c17.5-9.8,28.7,9.5,39.7,18.6c0.1,0.1,0.2,0.1,0.2,0.1c2.6,3.1,5.6,5.5,9,7.2c5.4,1.6,11.5,1.8,16.3,1.5
			c8.8-0.7,16.2-0.3,23.9,1.4c-12-3.7-24.8-2.3-36.1-5.9c1.7-2.3,2-6,2.6-8.4c0.9-3.5,1.2-7.1,1.4-10.6c-0.4-3.4-0.9-6.8-1.2-10.1
			c-0.2-1.3-0.3-2.6-0.4-3.9c-0.1,0.3-0.3,0.7-0.4,1c-0.6-14.9-0.8-29.7-1.7-44.6c-0.9-15.2-5.9-29.9-3.4-45.1
			c0.7-4.1,2.6-7.8,4.7-11.4c8.4-13.7,18.3-0.4,20.7,7.1c3.3,10.1,2.1,22.8,1.9,33.4c-0.3,14.5-3,29.9,2.6,43.6c-4,1.1-8,2.3-11.8,4
			c-0.2,0.2-0.3,0.4-0.5,0.6c13.4-6.7,30.4-7.2,44.6-6.7c15.1,0.6,37.1,3.2,47.4,16.2c-0.2-0.6-0.4-1.3-0.6-1.9
			c-0.1-0.3,0-0.6,0.1-0.8c-0.2-0.2-0.4-0.4-0.7-0.6c0.8-0.4,1.6-1.1,2.5-2c6.2-5.8,11.9-12.1,17.9-18c6.2-6,12.5-11.8,19.1-17.3
			c4.1-3.4,8.2-6.7,12.9-9.4C365.1,178.8,365,195.7,361.8,203.1z"/>
	</g>
	<g>
		<path id="XMLID_6_" class="st2" d="M311.6,179.7c4.2-7.8,9.1-20,9.1-30.9c-0.5-3.6-1.5-7.1-3.3-10.6c-6.5-3.6-15.6,2.9-20.1,9.3
			c-6,8.5-10.3,17.2-12.9,27.2c-1.1,4.3-8.6,34.7-16.3,43.1c8.8,1.5,17.2,4.4,24.8,9C294,209.8,303.6,194.4,311.6,179.7z"/>
		<path id="XMLID_5_" class="st2" d="M298.6,211.1c2.2-5.8,5.2-11.3,8.2-16.8c1.6-3,3.1-6.1,4.6-9.2
			C306.9,193.7,301.8,202.1,298.6,211.1z"/>
		<path id="XMLID_4_" class="st2" d="M264.4,155.5c1.8-10.4,7.3-34.1-7.3-37.4c-0.2-0.1-0.4-0.2-0.5-0.3c-7.4,0-11.7,8.4-13.3,15.3
			c-4.5,19.3-6.3,38.9-9.3,58.4c-1.3,8.4-2.7,16.9-5.2,25c-0.5,1.6-1.3,2.8-2.4,3.7c10.2-2.7,21.4-4,32.4-3.4
			C252.1,197.5,261,174.7,264.4,155.5z"/>
		<path id="XMLID_3_" class="st2" d="M170,254.8c-3.1-3-6.3-5.7-9.8-7.6C163.5,249.2,166.7,251.9,170,254.8z"/>
		<path id="XMLID_2_" class="st2" d="M219.2,177.8c0.1-3,0.2-6.3,0.3-9.6c-0.6,8.8-1.1,17.5-1.2,26.3c0,2.6,0,5.3,0.1,8.1
			C218.2,194.4,219.1,186,219.2,177.8z"/>
		<path id="XMLID_1_" class="st2" d="M360.1,184.6c-1.7-0.9-4-0.8-7.2,1c-4.7,2.7-8.8,6-12.9,9.4c-6.6,5.5-13,11.3-19.1,17.3
			c-6.1,5.9-11.7,12.2-17.9,18c-1,0.9-1.7,1.6-2.5,2c0.2,0.2,0.4,0.4,0.7,0.6c-0.1,0.3-0.2,0.5-0.1,0.8c0.4,1.2,0.8,2.4,1.1,3.6
			c0.2,1.4,0.3,2.9,0.5,4.3c-4.4-5.2-10.1-9.4-17.2-12.6c-24.4-11.1-50.1-10.9-74.7,0c-2.1,0.9-3.8,2-5.1,3.2
			c1.1-2.5,2.7-4.7,4.6-6.7c3.4-1.6,7-2.7,10.6-3.7c-16.3-25.9,11.9-70.5-15.3-90.3c-2.8-0.3-5.9,1.2-8.7,5.9
			c-2.2,3.5-4.1,7.2-4.7,11.4c-2.5,15.3,2.5,30,3.4,45.1c0.9,14.8,1.1,29.7,1.7,44.6c0.1-0.3,0.2-0.7,0.4-1c0.1,1.3,0.2,2.6,0.4,3.9
			c0.3,3.4,0.8,6.8,1.2,10.1c-0.2,3.5-0.4,7-1.4,10.6c-0.6,2.5-0.9,6.1-2.6,8.4c12.3,3.9,26.2,1.9,39,6.8
			c18.3,6.9,27.3,21.9,34.6,39.4c0.4,0.9-0.7,2.2-1.4,1.2c-6-9-10.7-19.7-19-27c-9.2-8-20.2-11.1-32.1-12
			c-8.3-0.6-16.7-1.5-23.8-4.8c-18.6-5.3-35.9-42.4-56-21.3c-0.1,0.1-0.1,0.1-0.2,0.1c-5.2,9.5,11.6,20.9,17,25.4
			c0.5,0.4,1,0.9,1.5,1.3c12,4.8,17,22.1,21.2,32.7c7.1,18,17,34,37.2,38.7c0.6,0.1,0.8,0.6,0.7,1.1c2.8,0.9,5.8,1.5,8.7,2.1
			c0.2,0.5-0.2,1.3-0.8,1.2c-2.2-0.3-4.4-0.5-6.6-0.8c0.1,0.6,0.2,1.2,0.2,1.8c1,2.3,1.2,5,1.2,7.6c0.8,0.4,1.8,0.6,2.9,0.7
			c5.2,0.4,10,0.5,15.1,0.2c10.5-0.7,22.4-2.4,31.8-7.3c5.9-3.1,22.6-9.9,21.9-18.3c-11.2,7.4-24.8,10.9-39.2,9.5
			c-0.4,0-0.7-0.3-0.9-0.6c-1-0.6,0.2-1.6,7.4-2.8c43.2-7.3,59.6-43.4,58.1-80.1c-0.2-2.8-0.4-5.6-0.6-8.4c-0.3-4.6-1.8-9-3-13.5
			c1.8,3,3.2,6.3,4.4,9.7c0.9-9.3,10.9-16.9,17.5-22.3c7.8-6.5,16.9-12.4,23.4-20.5C361.8,202,362.7,193.9,360.1,184.6z"/>
	</g>
</g>
</svg>
